<svg xmlns="http://www.w3.org/2000/svg" fill="none" viewBox="0 0 127 129"><path fill="url(#a)" d="M0 64C0 11 11 0 64 0c52 0 63 11 63 64 0 52-11 63-63 63-53 0-64-11-64-63Z"/><g filter="url(#b)"><path fill="#201B1B" d="M68 51c4-1 9 4 11 11 1 7-1 13-6 14s-9-4-11-11c-1-7 1-13 6-14Zm28 0c4 1 7 7 5 14-1 7-6 12-10 11-5-1-8-7-6-14 1-7 6-12 11-11ZM47 69c4-2 10 1 14 7 3 7 2 13-3 15-4 2-10-2-13-8s-2-12 2-14Zm70 0c4 2 5 8 2 14s-9 10-13 8c-5-2-6-8-3-15 4-6 10-9 14-7Zm-7 42c1 3-2 7-6 9-6 3-15-3-22-3-8 0-16 6-23 3-4-2-7-7-6-11 0-6 7-9 11-13 6-6 10-16 18-16 7 0 11 10 17 16 4 4 11 8 11 15Z"/></g><defs><radialGradient id="a" cx="0" cy="0" r="1" gradientTransform="matrix(94 115 -115 94 0 12)" gradientUnits="userSpaceOnUse"><stop stop-color="#F093FB"/><stop offset="1" stop-color="#F5576C"/></radialGradient><filter id="b" width="86" height="78" x="39" y="51" color-interpolation-filters="sRGB" filterUnits="userSpaceOnUse"><feFlood flood-opacity="0" result="BackgroundImageFix"/><feColorMatrix in="SourceAlpha" result="hardAlpha" values="0 0 0 0 0 0 0 0 0 0 0 0 0 0 0 0 0 0 127 0"/><feOffset dy="4"/><feGaussianBlur stdDeviation="2"/><feComposite in2="hardAlpha" operator="out"/><feColorMatrix values="0 0 0 0 0 0 0 0 0 0 0 0 0 0 0 0 0 0 0.35 0"/><feBlend in2="BackgroundImageFix" result="effect1_dropShadow_1_20"/><feBlend in="SourceGraphic" in2="effect1_dropShadow_1_20" result="shape"/></filter></defs></svg>