<svg viewBox="0 0 256 228"><path fill="#00D8FF" d="M210.48 73.82a171.49 171.49 0 0 0-8.24-2.6c.47-1.9.9-3.77 1.28-5.61 6.23-30.28 2.16-54.68-11.77-62.71-13.36-7.7-35.2.33-57.26 19.52a171.23 171.23 0 0 0-6.37 5.85 155.87 155.87 0 0 0-4.24-3.91C100.76 3.83 77.58-4.82 63.68 3.23 50.32 10.96 46.37 33.9 51.98 62.6a170.97 170.97 0 0 0 1.9 8.48c-3.28.93-6.45 1.92-9.48 2.98C17.31 83.5 0 98.3 0 113.67c0 15.86 18.58 31.78 46.81 41.43a145.52 145.52 0 0 0 6.92 2.16 167.47 167.47 0 0 0-2 9.14c-5.36 28.2-1.18 50.59 12.13 58.26 13.74 7.93 36.8-.22 59.27-19.85a145.57 145.57 0 0 0 5.34-4.92 168.06 168.06 0 0 0 6.92 6.31c21.76 18.72 43.25 26.28 56.54 18.59 13.73-7.95 18.2-32 12.4-61.27a145.02 145.02 0 0 0-1.53-6.84c1.62-.48 3.2-.98 4.76-1.5 29.34-9.72 48.44-25.44 48.44-41.51 0-15.42-17.87-30.33-45.52-39.85Zm-6.36 70.99c-1.4.46-2.84.9-4.3 1.34a256.55 256.55 0 0 0-12.97-32.43c5.11-11 9.31-21.77 12.46-31.96 2.62.76 5.16 1.56 7.61 2.4 23.7 8.16 38.14 20.22 38.14 29.5 0 9.9-15.6 22.75-40.94 31.15Zm-10.52 20.83c2.57 12.94 2.93 24.64 1.23 33.79-1.52 8.22-4.59 13.7-8.38 15.9-8.07 4.66-25.32-1.4-43.93-17.42a156.73 156.73 0 0 1-6.43-5.87 256.79 256.79 0 0 0 21.46-27.25 256.03 256.03 0 0 0 34.67-5.34 134.17 134.17 0 0 1 1.38 6.2ZM87.28 214.52c-7.89 2.78-14.16 2.86-17.96.67-8.07-4.66-11.43-22.64-6.85-46.75a156.92 156.92 0 0 1 1.87-8.5 257.04 257.04 0 0 0 34.5 5 266.31 266.31 0 0 0 21.97 27.14 134.67 134.67 0 0 1-4.88 4.5c-9.93 8.68-19.88 14.84-28.65 17.93Zm-36.93-69.77c-12.48-4.27-22.8-9.81-29.86-15.87-6.35-5.43-9.55-10.83-9.55-15.21 0-9.32 13.9-21.21 37.07-29.3 2.82-.97 5.76-1.9 8.82-2.77a262.3 262.3 0 0 0 12.47 32.33 266.39 266.39 0 0 0-12.63 32.8 134.72 134.72 0 0 1-6.32-1.98Zm12.38-84.26c-4.81-24.59-1.62-43.14 6.42-47.8 8.57-4.95 27.5 2.12 47.47 19.84a144.32 144.32 0 0 1 3.84 3.55 262.1 262.1 0 0 0-21.81 26.99 267.2 267.2 0 0 0-34.16 5.3 160.34 160.34 0 0 1-1.76-7.88Zm110.43 27.27a347.8 347.8 0 0 0-7.79-12.8c8.17 1.03 16 2.4 23.34 4.07a233.53 233.53 0 0 1-8.19 22.05 381.15 381.15 0 0 0-7.37-13.32Zm-45.04-43.87a233.94 233.94 0 0 1 15.07 18.19 322.04 322.04 0 0 0-30.26 0 241.31 241.31 0 0 1 15.2-18.19ZM82.8 87.83a323.17 323.17 0 0 0-7.22 13.24 241.44 241.44 0 0 1-8.14-22.15 247 247 0 0 1 23.21-3.99 321.52 321.52 0 0 0-7.85 12.9Zm8.08 65.35c-8.38-.93-16.29-2.2-23.59-3.8a243.4 243.4 0 0 1 8.3-22.6 321.19 321.19 0 0 0 7.26 13.26c2.59 4.48 5.28 8.86 8.03 13.14Zm37.55 31.03a245.18 245.18 0 0 1-15.4-18.43 367.67 367.67 0 0 0 30.42-.05 232.66 232.66 0 0 1-15.02 18.48Zm52.2-57.81a231.9 231.9 0 0 1 8.59 22.52 232 232 0 0 1-23.88 4.07 382.42 382.42 0 0 0 7.86-13.03 347.4 347.4 0 0 0 7.42-13.56Zm-16.9 8.1a358.56 358.56 0 0 1-12.29 19.81 329.4 329.4 0 0 1-23.44.82c-7.97 0-15.72-.24-23.18-.73a310.2 310.2 0 0 1-12.51-19.84 307.41 307.41 0 0 1-10.92-20.63 310.28 310.28 0 0 1 10.89-20.64 307.32 307.32 0 0 1 12.4-19.76 307.89 307.89 0 0 1 46.66 0 329.36 329.36 0 0 1 12.35 19.7 358.49 358.49 0 0 1 11.03 20.54 329.47 329.47 0 0 1-11 20.73Zm22.56-122.13c8.57 4.95 11.9 24.88 6.52 51.03-.35 1.67-.73 3.37-1.15 5.09a261.82 261.82 0 0 0-34.23-5.41 256.84 256.84 0 0 0-21.64-27 160.79 160.79 0 0 1 5.88-5.4c18.9-16.45 36.57-22.95 44.62-18.3ZM128 90.81a22.86 22.86 0 1 1 0 45.72 22.86 22.86 0 0 1 0-45.72Z"/></svg>