<svg viewBox="0 0 256 239"><defs><linearGradient id="a" x1="-5.86%" x2="91.41%" y1="38.27%" y2="60.92%"><stop offset="10%" stop-color="#76B3E1"/><stop offset="30%" stop-color="#DCF2FD"/><stop offset="100%" stop-color="#76B3E1"/></linearGradient><linearGradient id="b" x1="57%" x2="37.94%" y1="38.44%" y2="68.38%"><stop offset="0%" stop-color="#76B3E1"/><stop offset="50%" stop-color="#4377BB"/><stop offset="100%" stop-color="#1F3B77"/></linearGradient><linearGradient id="c" x1="10.71%" x2="104.34%" y1="34.53%" y2="70.45%"><stop offset="0%" stop-color="#315AA9"/><stop offset="50%" stop-color="#518AC8"/><stop offset="100%" stop-color="#315AA9"/></linearGradient><linearGradient id="d" x1="61.99%" x2="17.76%" y1="29.58%" y2="105.12%"><stop offset="0%" stop-color="#4377BB"/><stop offset="50%" stop-color="#1A336B"/><stop offset="100%" stop-color="#1A336B"/></linearGradient></defs><path fill="#76B3E1" d="M256 50.47s-85.33-62.79-151.35-48.3l-4.83 1.61C90.16 7 82.12 11.83 77.28 18.27l-3.22 4.83-24.15 41.86 41.86 8.05c17.71 11.27 40.26 16.1 61.19 11.27l74.06 14.5L256 50.47Z"/><path fill="url(#a)" d="M256 50.47s-85.33-62.79-151.35-48.3l-4.83 1.61C90.16 7 82.12 11.83 77.28 18.27l-3.22 4.83-24.15 41.86 41.86 8.05c17.71 11.27 40.26 16.1 61.19 11.27l74.06 14.5L256 50.47Z" opacity=".3"/><path fill="#518AC8" d="m77.28 50.47-6.44 1.61c-27.37 8.05-35.42 33.81-20.93 56.35 16.1 20.94 49.91 32.2 77.29 24.16l99.82-33.81s-85.33-62.8-149.74-48.3Z"/><path fill="url(#b)" d="m77.28 50.47-6.44 1.61c-27.37 8.05-35.42 33.81-20.93 56.35 16.1 20.94 49.91 32.2 77.29 24.16l99.82-33.81s-85.33-62.8-149.74-48.3Z" opacity=".3"/><path fill="url(#c)" d="M209.3 122.93a72.45 72.45 0 0 0-77.28-24.16l-99.82 32.2L0 187.34l180.33 30.59 32.2-57.96c6.44-11.27 4.83-24.15-3.22-37.03Z"/><path fill="url(#d)" d="M177.1 179.28a72.45 72.45 0 0 0-77.28-24.15L0 187.33s85.33 64.4 151.35 48.3l4.83-1.61c27.37-8.05 37.03-33.81 20.93-54.74Z"/></svg>