<svg viewBox="0 0 256 308"><path fill="#FF3E00" d="M239.68 40.7c-28.57-40.87-84.98-53-125.78-27L42.25 59.36A82.2 82.2 0 0 0 5.1 114.4a86.57 86.57 0 0 0 8.55 55.6 82.42 82.42 0 0 0-12.3 30.72 87.6 87.6 0 0 0 14.97 66.24c28.57 40.9 85 53 125.78 27.02l71.65-45.67a82.18 82.18 0 0 0 37.14-55.05 86.6 86.6 0 0 0-8.53-55.58 82.4 82.4 0 0 0 12.29-30.72 87.57 87.57 0 0 0-14.97-66.24"/><path fill="#FFF" d="M106.89 270.84c-23.1 6-47.5-3.03-61.1-22.65a52.69 52.69 0 0 1-9-39.85 49.98 49.98 0 0 1 1.7-6.69l1.36-4.12 3.67 2.7a92.45 92.45 0 0 0 28.03 14l2.67.82-.25 2.66a16.07 16.07 0 0 0 2.9 10.65 17.14 17.14 0 0 0 18.39 6.83 15.79 15.79 0 0 0 4.4-1.94l71.67-45.67a14.92 14.92 0 0 0 6.73-9.97 15.92 15.92 0 0 0-2.7-12.02 17.16 17.16 0 0 0-18.41-6.83 15.78 15.78 0 0 0-4.4 1.94l-27.35 17.43a52.3 52.3 0 0 1-14.55 6.4c-23.1 6-47.5-3.05-61.1-22.66a52.68 52.68 0 0 1-9-39.85 49.43 49.43 0 0 1 22.33-33.11l71.67-45.68a52.22 52.22 0 0 1 14.56-6.4c23.1-6 47.5 3.04 61.1 22.65a52.69 52.69 0 0 1 9 39.85 50.56 50.56 0 0 1-1.7 6.7l-1.36 4.11-3.67-2.7a92.37 92.37 0 0 0-28.03-14l-2.67-.82.25-2.65a16.1 16.1 0 0 0-2.9-10.66 17.14 17.14 0 0 0-18.39-6.83 15.79 15.79 0 0 0-4.4 1.94l-71.67 45.67a14.9 14.9 0 0 0-6.73 9.98 15.9 15.9 0 0 0 2.7 12 17.16 17.16 0 0 0 18.41 6.84 15.84 15.84 0 0 0 4.4-1.93l27.35-17.43a52.15 52.15 0 0 1 14.55-6.4c23.1-6 47.5 3.04 61.1 22.65a52.68 52.68 0 0 1 9 39.85 49.45 49.45 0 0 1-22.33 33.12l-71.67 45.67a52.22 52.22 0 0 1-14.56 6.4"/></svg>