<svg viewBox="0 0 256 256"><path fill="#F7DF1E" d="M0 0h256v256H0V0Z"/><path d="m67.31 213.93 19.6-11.85c3.77 6.7 7.21 12.37 15.46 12.37 7.9 0 12.89-3.1 12.89-15.12v-81.8h24.05v82.14c0 24.91-14.6 36.26-35.91 36.26-19.25 0-30.42-9.97-36.09-22m85.07-2.58 19.59-11.34c5.16 8.42 11.86 14.61 23.71 14.61 9.97 0 16.33-4.98 16.33-11.86 0-8.25-6.53-11.17-17.53-15.98l-6.01-2.58c-17.36-7.39-28.87-16.67-28.87-36.26 0-18.04 13.74-31.79 35.23-31.79 15.29 0 26.29 5.33 34.2 19.25l-18.74 12.03c-4.13-7.39-8.6-10.31-15.47-10.31-7.04 0-11.5 4.47-11.5 10.31 0 7.22 4.46 10.14 14.77 14.6l6.01 2.58c20.45 8.77 31.97 17.7 31.97 37.8 0 21.66-17.02 33.52-39.87 33.52-22.34 0-36.78-10.66-43.82-24.58"/></svg>